<svg xmlns="http://www.w3.org/2000/svg" viewBox="0 0 72 72" width="72" height="72"><title>SafeRed</title><g transform="translate(0.00 0.00) scale(1)"><path d="M50 18H28a10 10 0 0 0 0 20h8" fill="none" stroke="#ff8a4c" stroke-width="8"/><path d="M36 38h8a10 10 0 0 1 0 20H22" fill="none" stroke="#35c3f0" stroke-width="8"/><rect x="50" y="12" width="6" height="12" rx="1.5" fill="#ffffff"/><rect x="16" y="52" width="6" height="12" rx="1.5" fill="#ffffff"/><rect x="33" y="32" width="6" height="12" rx="1.5" fill="#ffffff"/><path d="M64 1c3.5 5 6 8 6 12.5a6.5 6.5 0 0 1-13 0c0-3 1.6-5 3-7 .4 2.4 1.5 3.6 3 3.8-.9-3-.6-6 1-9.3Z" fill="#ff8a4c"/><path d="M8 55s-5.5 6.3-5.5 10a5.5 5.5 0 0 0 11 0C13.5 61.3 8 55 8 55Z" fill="#35c3f0"/></g></svg>
